<mxfile host="app.diagrams.net" modified="2024-05-10T12:42:00.355Z" agent="Mozilla/5.0 (Windows NT 10.0; Win64; x64; rv:125.0) Gecko/20100101 Firefox/125.0" etag="y15RyV4iZksXs6QShKxK" version="24.3.1" type="github">
  <diagram name="Página-1" id="1w-2qHGkByeB6x6r1jN1">
    <mxGraphModel dx="880" dy="1561" grid="1" gridSize="10" guides="1" tooltips="1" connect="1" arrows="1" fold="1" page="1" pageScale="1" pageWidth="827" pageHeight="1169" math="0" shadow="0">
      <root>
        <mxCell id="0" />
        <mxCell id="1" parent="0" />
        <mxCell id="Go0iKj1DoSxpAmupvIPo-8" style="edgeStyle=orthogonalEdgeStyle;rounded=0;orthogonalLoop=1;jettySize=auto;html=1;entryX=0.5;entryY=0;entryDx=0;entryDy=0;" edge="1" parent="1" source="Go0iKj1DoSxpAmupvIPo-1" target="Go0iKj1DoSxpAmupvIPo-6">
          <mxGeometry relative="1" as="geometry">
            <Array as="points">
              <mxPoint x="300" y="30" />
            </Array>
          </mxGeometry>
        </mxCell>
        <mxCell id="Go0iKj1DoSxpAmupvIPo-10" style="edgeStyle=orthogonalEdgeStyle;rounded=0;orthogonalLoop=1;jettySize=auto;html=1;entryX=0.5;entryY=0;entryDx=0;entryDy=0;" edge="1" parent="1" source="Go0iKj1DoSxpAmupvIPo-1" target="Go0iKj1DoSxpAmupvIPo-7">
          <mxGeometry relative="1" as="geometry">
            <Array as="points">
              <mxPoint x="500" y="30" />
            </Array>
          </mxGeometry>
        </mxCell>
        <mxCell id="Go0iKj1DoSxpAmupvIPo-1" value="Inicio" style="strokeWidth=2;html=1;shape=mxgraph.flowchart.start_1;whiteSpace=wrap;" vertex="1" parent="1">
          <mxGeometry x="350" width="100" height="60" as="geometry" />
        </mxCell>
        <mxCell id="Go0iKj1DoSxpAmupvIPo-6" value="sphere" style="shape=parallelogram;html=1;strokeWidth=2;perimeter=parallelogramPerimeter;whiteSpace=wrap;rounded=1;arcSize=12;size=0.23;" vertex="1" parent="1">
          <mxGeometry x="250" y="100" width="100" height="60" as="geometry" />
        </mxCell>
        <mxCell id="Go0iKj1DoSxpAmupvIPo-7" value="r" style="shape=parallelogram;html=1;strokeWidth=2;perimeter=parallelogramPerimeter;whiteSpace=wrap;rounded=1;arcSize=12;size=0.23;" vertex="1" parent="1">
          <mxGeometry x="450" y="100" width="100" height="60" as="geometry" />
        </mxCell>
        <mxCell id="Go0iKj1DoSxpAmupvIPo-16" style="edgeStyle=orthogonalEdgeStyle;rounded=0;orthogonalLoop=1;jettySize=auto;html=1;exitX=0;exitY=0.5;exitDx=0;exitDy=0;exitPerimeter=0;entryX=0.5;entryY=0;entryDx=0;entryDy=0;" edge="1" parent="1" source="Go0iKj1DoSxpAmupvIPo-11" target="Go0iKj1DoSxpAmupvIPo-15">
          <mxGeometry relative="1" as="geometry" />
        </mxCell>
        <mxCell id="Go0iKj1DoSxpAmupvIPo-18" style="edgeStyle=orthogonalEdgeStyle;rounded=0;orthogonalLoop=1;jettySize=auto;html=1;entryX=0.5;entryY=0;entryDx=0;entryDy=0;entryPerimeter=0;" edge="1" parent="1" source="Go0iKj1DoSxpAmupvIPo-11" target="Go0iKj1DoSxpAmupvIPo-22">
          <mxGeometry relative="1" as="geometry">
            <mxPoint x="560" y="300" as="targetPoint" />
          </mxGeometry>
        </mxCell>
        <mxCell id="Go0iKj1DoSxpAmupvIPo-11" value="r &amp;gt;= 0" style="strokeWidth=2;html=1;shape=mxgraph.flowchart.decision;whiteSpace=wrap;" vertex="1" parent="1">
          <mxGeometry x="350" y="200" width="100" height="100" as="geometry" />
        </mxCell>
        <mxCell id="Go0iKj1DoSxpAmupvIPo-13" style="edgeStyle=orthogonalEdgeStyle;rounded=0;orthogonalLoop=1;jettySize=auto;html=1;entryX=0.5;entryY=0;entryDx=0;entryDy=0;entryPerimeter=0;" edge="1" parent="1" source="Go0iKj1DoSxpAmupvIPo-6" target="Go0iKj1DoSxpAmupvIPo-11">
          <mxGeometry relative="1" as="geometry">
            <Array as="points">
              <mxPoint x="400" y="130" />
            </Array>
          </mxGeometry>
        </mxCell>
        <mxCell id="Go0iKj1DoSxpAmupvIPo-14" style="edgeStyle=orthogonalEdgeStyle;rounded=0;orthogonalLoop=1;jettySize=auto;html=1;entryX=0.5;entryY=0;entryDx=0;entryDy=0;entryPerimeter=0;" edge="1" parent="1" source="Go0iKj1DoSxpAmupvIPo-7" target="Go0iKj1DoSxpAmupvIPo-11">
          <mxGeometry relative="1" as="geometry">
            <Array as="points">
              <mxPoint x="400" y="130" />
            </Array>
          </mxGeometry>
        </mxCell>
        <mxCell id="Go0iKj1DoSxpAmupvIPo-21" value="" style="edgeStyle=orthogonalEdgeStyle;rounded=0;orthogonalLoop=1;jettySize=auto;html=1;" edge="1" parent="1" source="Go0iKj1DoSxpAmupvIPo-15" target="Go0iKj1DoSxpAmupvIPo-20">
          <mxGeometry relative="1" as="geometry" />
        </mxCell>
        <mxCell id="Go0iKj1DoSxpAmupvIPo-15" value="&lt;div&gt;sphere: &lt;br&gt;&lt;/div&gt;&lt;div&gt;4&lt;span&gt;&lt;em&gt;πr&lt;/em&gt;&lt;/span&gt;&lt;sup&gt;&lt;span style=&quot;mso-ansi-language:ES-MX&quot; lang=&quot;ES-MX&quot;&gt;2&lt;/span&gt;&lt;/sup&gt;&lt;br/&gt;&lt;br/&gt;&lt;/div&gt;" style="rounded=1;whiteSpace=wrap;html=1;absoluteArcSize=1;arcSize=14;strokeWidth=2;" vertex="1" parent="1">
          <mxGeometry x="190" y="300" width="100" height="60" as="geometry" />
        </mxCell>
        <mxCell id="Go0iKj1DoSxpAmupvIPo-24" value="" style="edgeStyle=orthogonalEdgeStyle;rounded=0;orthogonalLoop=1;jettySize=auto;html=1;" edge="1" parent="1" source="Go0iKj1DoSxpAmupvIPo-20" target="Go0iKj1DoSxpAmupvIPo-23">
          <mxGeometry relative="1" as="geometry" />
        </mxCell>
        <mxCell id="Go0iKj1DoSxpAmupvIPo-20" value="Sphere" style="strokeWidth=2;html=1;shape=mxgraph.flowchart.display;whiteSpace=wrap;" vertex="1" parent="1">
          <mxGeometry x="190" y="400" width="100" height="60" as="geometry" />
        </mxCell>
        <mxCell id="Go0iKj1DoSxpAmupvIPo-27" value="" style="edgeStyle=orthogonalEdgeStyle;rounded=0;orthogonalLoop=1;jettySize=auto;html=1;" edge="1" parent="1" source="Go0iKj1DoSxpAmupvIPo-22" target="Go0iKj1DoSxpAmupvIPo-26">
          <mxGeometry relative="1" as="geometry" />
        </mxCell>
        <mxCell id="Go0iKj1DoSxpAmupvIPo-22" value="&quot;Radius cannot be negative&quot;" style="strokeWidth=2;html=1;shape=mxgraph.flowchart.display;whiteSpace=wrap;" vertex="1" parent="1">
          <mxGeometry x="510" y="300" width="100" height="60" as="geometry" />
        </mxCell>
        <mxCell id="Go0iKj1DoSxpAmupvIPo-23" value="Fin" style="strokeWidth=2;html=1;shape=mxgraph.flowchart.terminator;whiteSpace=wrap;" vertex="1" parent="1">
          <mxGeometry x="190" y="525" width="100" height="60" as="geometry" />
        </mxCell>
        <mxCell id="Go0iKj1DoSxpAmupvIPo-26" value="Fin" style="strokeWidth=2;html=1;shape=mxgraph.flowchart.terminator;whiteSpace=wrap;" vertex="1" parent="1">
          <mxGeometry x="510" y="400" width="100" height="60" as="geometry" />
        </mxCell>
        <mxCell id="Go0iKj1DoSxpAmupvIPo-28" value="&lt;div&gt;Si&lt;/div&gt;" style="text;html=1;align=center;verticalAlign=middle;whiteSpace=wrap;rounded=0;" vertex="1" parent="1">
          <mxGeometry x="270" y="220" width="60" height="30" as="geometry" />
        </mxCell>
        <mxCell id="Go0iKj1DoSxpAmupvIPo-29" value="No" style="text;html=1;align=center;verticalAlign=middle;whiteSpace=wrap;rounded=0;" vertex="1" parent="1">
          <mxGeometry x="470" y="220" width="60" height="30" as="geometry" />
        </mxCell>
      </root>
    </mxGraphModel>
  </diagram>
</mxfile>
